<svg xmlns="http://www.w3.org/2000/svg" width="50" height="14" fill="none"><path fill="#253B80" d="M6 .002H2.111a.54.54 0 0 0-.534.456L.004 10.431a.324.324 0 0 0 .32.374h1.857a.54.54 0 0 0 .534-.457l.425-2.69a.54.54 0 0 1 .533-.456h1.231c2.562 0 4.04-1.24 4.427-3.697.174-1.074.007-1.919-.496-2.51C8.282.345 7.302.002 6 .002Zm.449 3.642C6.236 5.04 5.169 5.04 4.139 5.04h-.587l.412-2.606a.324.324 0 0 1 .32-.274h.269c.702 0 1.365 0 1.707.4.204.24.267.594.189 1.084ZM17.625 3.598h-1.862a.324.324 0 0 0-.32.273l-.083.521-.13-.188c-.403-.586-1.303-.781-2.2-.781-2.058 0-3.816 1.558-4.158 3.745-.178 1.09.075 2.134.694 2.86.567.67 1.38.948 2.346.948 1.658 0 2.577-1.066 2.577-1.066l-.083.518a.324.324 0 0 0 .32.375h1.678a.54.54 0 0 0 .534-.457l1.006-6.374a.323.323 0 0 0-.319-.374Zm-2.596 3.625C14.849 8.287 14.005 9 12.928 9c-.541 0-.973-.174-1.25-.502-.276-.327-.38-.791-.293-1.309.168-1.055 1.027-1.792 2.087-1.792.529 0 .959.175 1.242.507.284.335.396.802.315 1.318ZM27.544 3.598h-1.872a.542.542 0 0 0-.447.237l-2.581 3.802-1.094-3.654a.542.542 0 0 0-.519-.385h-1.839a.324.324 0 0 0-.308.429l2.062 6.05-1.938 2.735a.324.324 0 0 0 .264.512h1.87a.54.54 0 0 0 .444-.232l6.224-8.985a.324.324 0 0 0-.266-.51Z"/><path fill="#179BD7" d="M33.74 0h-3.89a.54.54 0 0 0-.533.457l-1.573 9.972a.323.323 0 0 0 .32.374h1.996a.378.378 0 0 0 .373-.32l.446-2.826a.54.54 0 0 1 .534-.457h1.23c2.563 0 4.04-1.24 4.427-3.696.175-1.075.007-1.92-.496-2.51C36.022.343 35.042 0 33.74 0Zm.449 3.643c-.212 1.395-1.278 1.395-2.31 1.395h-.586l.412-2.606a.323.323 0 0 1 .32-.273h.269c.701 0 1.364 0 1.707.4.204.239.266.594.188 1.084ZM45.364 3.598h-1.86a.323.323 0 0 0-.32.273l-.083.521-.13-.188c-.404-.586-1.302-.781-2.2-.781-2.058 0-3.815 1.558-4.157 3.745-.177 1.09.074 2.134.693 2.86.569.67 1.38.948 2.346.948 1.658 0 2.578-1.066 2.578-1.066l-.083.518a.324.324 0 0 0 .32.375h1.677a.54.54 0 0 0 .534-.457l1.007-6.374a.325.325 0 0 0-.322-.374ZM42.77 7.223C42.59 8.287 41.744 9 40.667 9c-.54 0-.973-.174-1.25-.502-.275-.327-.379-.791-.292-1.309.168-1.055 1.026-1.792 2.087-1.792.528 0 .958.175 1.241.507.285.335.398.802.316 1.318ZM47.56.274 45.964 10.43a.324.324 0 0 0 .32.374h1.604a.54.54 0 0 0 .534-.456L49.996.375a.324.324 0 0 0-.32-.375H47.88a.325.325 0 0 0-.32.274Z"/></svg>