<svg xmlns="http://www.w3.org/2000/svg" width="25" height="24" fill="none"><g clip-path="url(#a)"><path fill="#01C120" fill-rule="evenodd" d="M20.3 16a8.158 8.158 0 0 1-1.041 4.002 7.903 7.903 0 0 1-2.853 2.932 7.65 7.65 0 0 1-3.9 1.075 7.65 7.65 0 0 1-3.902-1.07 7.902 7.902 0 0 1-2.857-2.927 8.158 8.158 0 0 1-1.047-4c0-1.405.36-2.785 1.044-4.002A7.903 7.903 0 0 1 8.6 9.081V4c0-1.06.41-2.078 1.142-2.828A3.851 3.851 0 0 1 12.5 0c1.034 0 2.026.421 2.758 1.172A4.053 4.053 0 0 1 16.4 4v5.08c1.185.7 2.17 1.71 2.854 2.924A8.15 8.15 0 0 1 20.3 16ZM8.6 9.081l.127-.079H8.6v.079Zm3.9-7.079c-.517 0-1.013.21-1.379.586a2.026 2.026 0 0 0-.571 1.414v4.26a7.36 7.36 0 0 1 3.9 0V4c0-.53-.205-1.04-.571-1.414A1.925 1.925 0 0 0 12.5 2v.002Zm3.9 7h-.127l.127.079V9v.002Zm-3.9.987c-1.16 0-2.293.352-3.257 1.012a5.982 5.982 0 0 0-2.16 2.698 6.155 6.155 0 0 0-.334 3.474 6.061 6.061 0 0 0 1.604 3.078 5.817 5.817 0 0 0 3 1.646 5.725 5.725 0 0 0 3.388-.341 5.896 5.896 0 0 0 2.63-2.215 6.122 6.122 0 0 0 .989-3.34 6.1 6.1 0 0 0-1.718-4.25A5.796 5.796 0 0 0 12.5 9.988v.002Zm0 8.013a.963.963 0 0 1-.69-.293 1.013 1.013 0 0 1-.285-.707v-2c0-.265.103-.52.285-.707a.963.963 0 0 1 .69-.293c.259 0 .507.105.69.293.182.187.285.442.285.707v2c0 .265-.104.519-.286.706A.963.963 0 0 1 12.5 18v.002Z" clip-rule="evenodd"/></g><defs><clipPath id="a"><path fill="#fff" d="M4.7 0h15.6v24H4.7z"/></clipPath></defs></svg>