<svg xmlns="http://www.w3.org/2000/svg" width="32" height="22" fill="none"><rect width="31" height="21" x=".5" y=".5" fill="#fff" rx="3.5"/><rect width="31" height="21" x=".5" y=".5" stroke="#F2F4F7" rx="3.5"/><path fill="#ED0006" fill-rule="evenodd" d="M16 16.012a6.574 6.574 0 0 1-4.317 1.612c-3.675 0-6.654-3.022-6.654-6.75 0-3.727 2.979-6.749 6.654-6.749 1.648 0 3.155.607 4.317 1.612a6.574 6.574 0 0 1 4.317-1.612c3.675 0 6.654 3.022 6.654 6.75 0 3.727-2.979 6.75-6.654 6.75A6.574 6.574 0 0 1 16 16.011Z" clip-rule="evenodd"/><path fill="#F9A000" fill-rule="evenodd" d="M16 16.012a6.774 6.774 0 0 0 2.338-5.137c0-2.057-.907-3.9-2.338-5.138a6.574 6.574 0 0 1 4.317-1.612c3.675 0 6.654 3.022 6.654 6.75 0 3.727-2.979 6.75-6.654 6.75A6.574 6.574 0 0 1 16 16.011Z" clip-rule="evenodd"/><path fill="#FF5E00" fill-rule="evenodd" d="M16 16.012a6.774 6.774 0 0 0 2.338-5.137c0-2.057-.907-3.9-2.338-5.138a6.774 6.774 0 0 0-2.338 5.138c0 2.057.907 3.899 2.338 5.137Z" clip-rule="evenodd"/></svg>